<svg id="Layer_2" data-name="Layer 2" xmlns="http://www.w3.org/2000/svg" viewBox="0 0 24 24"><path d="M11.92,22.39A10.46,10.46,0,0,1,1.64,11.87,10.46,10.46,0,0,1,12.18,1.61,10.46,10.46,0,0,1,22.36,12,10.46,10.46,0,0,1,11.92,22.39Z" style="fill:#fff"/><path d="M5.26,5.26H18.74V18.74H5.26Z" style="fill:none"/><path d="M17.62,8.63A1.13,1.13,0,0,0,16.5,7.5h-9A1.13,1.13,0,0,0,6.38,8.63v6.74A1.13,1.13,0,0,0,7.5,16.5h9a1.13,1.13,0,0,0,1.12-1.13Zm-1.12,0L12,11.43,7.5,8.63Zm0,6.74h-9V9.75L12,12.56l4.5-2.81Z"/></svg>