<svg id="Layer_2" data-name="Layer 2" xmlns="http://www.w3.org/2000/svg" viewBox="0 0 24 24"><path d="M12.1,1.61A10.46,10.46,0,0,1,22.36,12.15,10.46,10.46,0,0,1,11.8,22.39,10.46,10.46,0,0,1,1.64,12,10.45,10.45,0,0,1,12.1,1.61Zm.05,5.31c-5.47,0-5.27-.29-5.22,5.18v.2c0,4.78,0,4.77,4.82,4.79,5.61,0,5.35.33,5.32-5.29C17.05,6.92,17.07,6.92,12.15,6.92Z" style="fill:#fff"/><path d="M12.15,6.92c4.92,0,4.9,0,4.92,4.88,0,5.62.29,5.31-5.32,5.29-4.82,0-4.82,0-4.82-4.79v-.2C6.88,6.63,6.68,6.88,12.15,6.92Zm-.07,9.45h1c3.08,0,3.11,0,3.09-3.09,0-.39,0-.79,0-1.19s-.16-.78-.7-.77-.58.39-.6.81A2.67,2.67,0,0,1,11.93,15a2.67,2.67,0,0,1-2.78-2.78c0-.4,0-.82-.56-.85s-.64.29-.75.72c-.76,3.12.13,4.32,3.24,4.32ZM12,14.08a1.84,1.84,0,0,0,2-2,1.83,1.83,0,0,0-1.88-1.92A1.84,1.84,0,0,0,10,12.08,1.83,1.83,0,0,0,12,14.08ZM15.9,9.21c.09-.87-.35-1.14-1.16-1.14s-1.13.36-1.13,1.18.36,1.13,1.17,1.14S16,10,15.9,9.21Z" style="fill:#020202"/><path d="M12.08,16.37h-1c-3.11,0-4-1.2-3.24-4.32.11-.43.23-.76.75-.72s.53.45.56.85A2.67,2.67,0,0,0,11.93,15a2.67,2.67,0,0,0,2.92-2.83c0-.42,0-.8.6-.81s.67.34.7.77,0,.8,0,1.19c0,3.06,0,3.09-3.09,3.09Z" style="fill:#fff"/><path d="M12,14.08a1.83,1.83,0,0,1-2-2,1.84,1.84,0,0,1,2.06-1.94A1.83,1.83,0,0,1,14,12.06,1.84,1.84,0,0,1,12,14.08Z" style="fill:#fff"/><path d="M15.9,9.21c.08.82-.26,1.18-1.12,1.18s-1.18-.27-1.17-1.14.27-1.19,1.13-1.18S16,8.34,15.9,9.21Z" style="fill:#fff"/></svg>