<svg id="Layer_2" data-name="Layer 2" xmlns="http://www.w3.org/2000/svg" viewBox="0 0 24 24"><path d="M12.07,1.61a10.46,10.46,0,0,1,10.29,10.5A10.47,10.47,0,0,1,11.83,22.39,10.46,10.46,0,0,1,1.64,12,10.45,10.45,0,0,1,12.07,1.61Zm4.86,12.57c-.13-1.18.37-3-1.43-3.72-1.49-.62-3.09.33-4.68,0-.62-.15-.42.68-.43,1.08,0,1.33,0,2.66,0,4,0,.81,0,1.36,1.11,1.35s1-.77,1-1.46,0-1.6.09-2.39A1.11,1.11,0,0,1,13.79,12c.67,0,.9.55.94,1.1a29.64,29.64,0,0,1,.06,3c0,.81.49.8,1.05.79s1.11.07,1.09-.75C16.92,15.54,16.93,15,16.93,14.18Zm-7.74-.55c0-.73,0-1.47,0-2.2s-.1-1.14-1-1.11-1.32,0-1.28,1c0,1.47,0,2.93,0,4.4,0,.92.39,1.09,1.2,1.11,1,0,1.09-.45,1-1.22S9.19,14.3,9.19,13.63ZM6.92,8.34a1.08,1.08,0,0,0,1.3,1,1,1,0,0,0,1-1A1,1,0,0,0,8,7.24,1.11,1.11,0,0,0,6.92,8.34Z" style="fill:#fff"/><path d="M16.93,14.18c0,.82,0,1.36,0,1.89,0,.82-.56.73-1.09.75s-1.06,0-1.05-.79a29.64,29.64,0,0,0-.06-3c0-.55-.27-1.07-.94-1.1A1.11,1.11,0,0,0,12.57,13c-.1.79-.06,1.59-.09,2.39s.22,1.45-1,1.46-1.13-.54-1.11-1.35c0-1.33,0-2.66,0-4,0-.4-.19-1.23.43-1.08,1.59.36,3.19-.59,4.68,0C17.3,11.22,16.8,13,16.93,14.18Z" style="fill:#020202"/><path d="M9.19,13.63c0,.67,0,1.34,0,2s-.08,1.25-1,1.22c-.81,0-1.23-.19-1.2-1.11.06-1.47,0-2.93,0-4.4,0-1,.56-1,1.28-1s1,.42,1,1.11S9.19,12.9,9.19,13.63Z" style="fill:#020202"/><path d="M6.92,8.34A1.11,1.11,0,0,1,8,7.24a1,1,0,0,1,1.18,1,1,1,0,0,1-1,1A1.08,1.08,0,0,1,6.92,8.34Z" style="fill:#020202"/></svg>