<?xml version="1.0" encoding="utf-8"?>
<!-- Generator: Adobe Illustrator 25.2.0, SVG Export Plug-In . SVG Version: 6.00 Build 0)  -->
<svg version="1.1" id="Layer_1" xmlns="http://www.w3.org/2000/svg" xmlns:xlink="http://www.w3.org/1999/xlink" x="0px" y="0px"
	 viewBox="0 0 557 527" style="enable-background:new 0 0 557 527;" xml:space="preserve">
<style type="text/css">
	.st0{fill:#FFFFFF;}
</style>
<g>
	<path class="st0" d="M534.9,243c0,1.3,0,2.7,0,4c-0.7,0.7-0.5,1.6-0.5,2.4c0,0.9,0,1.7,0,2.6c0.1,1-0.4,2.2,0.5,3.1
		c0,5.3,0,10.7,0,16c-0.9,0.9-0.4,2-0.5,3.1c0,0.9,0,1.7,0,2.6c0.1,0.8-0.2,1.7,0.5,2.4c0,1.7,0,3.3,0,5c-1.2,8-1.3,16.2-2.7,24.2
		c-5.6,31.9-17.2,61.5-34,89.1c-18.6,30.6-42.8,56.1-72.1,76.5c-34,23.7-71.6,38.8-112.9,44c-5.1,0.6-10.2,0.3-15.3,1.1
		c-1,0-2,0-3,0c-0.7-0.7-1.6-0.5-2.4-0.5c-0.9,0-1.7,0-2.6,0c-1,0.1-2.2-0.4-3.1,0.5c-5.3,0-10.7,0-16,0c-0.9-0.9-2-0.4-3.1-0.5
		c-0.9,0-1.7,0-2.6,0c-0.8,0.1-1.7-0.2-2.4,0.5c-1.7,0-3.3,0-5,0c-8-1.2-16.1-1.3-24.2-2.7c-31.7-5.6-61.2-17.1-88.7-33.7
		c-30.8-18.6-56.4-42.9-76.9-72.3c-23.7-34-38.8-71.6-44-112.9c-0.5-4.4-0.3-8.9-1.1-13.3c0-1.7,0-3.3,0-5c0.7-0.7,0.5-1.6,0.5-2.4
		c0-0.9,0-1.7,0-2.6c-0.1-1,0.4-2.2-0.5-3.1c0-5.3,0-10.7,0-16c0.9-0.9,0.4-2,0.5-3.1c0-0.9,0-1.7,0-2.6c-0.1-0.8,0.2-1.7-0.5-2.4
		c0-1.7,0-3.3,0-5c1.2-7.8,1.3-15.8,2.6-23.7c5.6-32.4,17.5-62.4,34.6-90.4c18.6-30.4,42.7-55.7,71.9-76
		c33.9-23.5,71.3-38.6,112.5-43.7c4.7-0.6,9.6-0.3,14.3-1.1c1.3,0,2.7,0,4,0c0.7,0.7,1.6,0.5,2.4,0.5c0.9,0,1.7,0,2.6,0
		c1-0.1,2.2,0.4,3.1-0.5c5.3,0,10.7,0,16,0c0.9,0.9,2,0.4,3.1,0.5c0.9,0,1.7,0,2.6,0c0.8-0.1,1.7,0.2,2.4-0.5c1,0,2,0,3,0
		c8.5,1.1,17.2,1.1,25.7,2.6c41.3,7.4,78.5,23.9,111.7,49.4c34.2,26.3,60.4,59,78,98.4c12,26.6,20.2,54.3,20.9,83.7
		C534.4,241.8,534.4,242.5,534.9,243z"/>
	<path class="st0" d="M298,518.9c3.4-2.1,7.3-1.3,10.9-1.8c108-12.6,196.5-92.7,220-199.2c2.3-10.4,3.8-20.9,4.9-31.5
		c0.1-0.9-0.3-2.1,1.1-2.4c0,77,0,153.9,0.1,230.9c0,3.4-0.7,4.1-4.1,4.1C453.3,518.9,375.6,518.9,298,518.9z"/>
	<path class="st0" d="M534.9,243c-2.2-5.2-1.7-10.9-2.6-16.3c-16.9-98.3-71.8-165.9-164-203.4c-21.7-8.8-44.5-13.4-67.9-15.2
		c-0.9-0.1-2.1,0.4-2.5-1c77.6,0,155.1,0,232.7-0.1c3.6,0,4.3,0.7,4.3,4.3C534.9,88.6,534.9,165.8,534.9,243z"/>
	<path class="st0" d="M259,7.1c-5.2,2.2-10.9,1.7-16.3,2.6C149.3,25.4,83,76.7,43.7,162.6c-11,24-16.8,49.7-19.5,76
		c-0.1,1.2,0.7,2.8-1.1,3.4c0-76.9,0-153.8-0.1-230.7C23,7.7,23.7,7,27.3,7C104.6,7.1,181.8,7.1,259,7.1z"/>
	<path class="st0" d="M23.1,284c2.2,5,1.9,10.5,2.7,15.8c15.2,104.9,94.1,189.9,197.8,213c10.4,2.3,20.9,3.8,31.5,5
		c1,0.1,2.4-0.6,2.9,1.1c-77,0-153.9,0-230.9,0.1c-3.4,0-4.1-0.7-4.1-4.1C23.1,437.9,23.1,361,23.1,284z"/>
	<path class="st0" d="M287,518.9c0.7-1.3,1.9-1,3-0.9c0.3,0.2,0.4,0.4,0.3,0.6c-0.1,0.2-0.2,0.3-0.3,0.3
		C289,518.9,288,518.9,287,518.9z"/>
	<path class="st0" d="M268,8c-1,0-2,0-3,0c-0.3-0.2-0.4-0.4-0.2-0.6c0.1-0.2,0.2-0.3,0.3-0.3c1,0,2,0,3,0c0.3,0.2,0.4,0.4,0.3,0.6
		C268.2,7.9,268.1,8,268,8z"/>
	<path class="st0" d="M268,8c0-0.3,0-0.6,0-0.9c1,0,2,0,3,0C270.3,8.3,269.1,8.1,268,8z"/>
	<path class="st0" d="M290,8c-1.1,0.1-2.3,0.4-3-0.9c1,0,2,0,3,0c0.3,0.2,0.4,0.4,0.3,0.6C290.2,7.9,290.1,8,290,8z"/>
	<path class="st0" d="M290,8c0-0.3,0-0.6,0-0.9c1,0,2,0,3,0c0.3,0.2,0.4,0.3,0.3,0.5c-0.1,0.2-0.2,0.3-0.3,0.3C292.1,8,291,8,290,8z
		"/>
	<path class="st0" d="M290,518.9c0-0.3,0-0.6,0-0.9c1,0,2,0,3,0c0.3,0.2,0.4,0.4,0.2,0.6c-0.1,0.2-0.2,0.3-0.3,0.3
		C292,518.9,291,518.9,290,518.9z"/>
	<path class="st0" d="M24,248.9c0,1,0,2,0,3c-0.3,0.5-0.5,0.5-0.9,0c0-1,0-2,0-3C23.4,248.6,23.6,248.6,24,248.9z"/>
	<path class="st0" d="M534,252c0-1,0-2,0-3c0.3-0.4,0.6-0.3,0.9,0.1c0,1,0,2,0,3C534.6,252.5,534.3,252.5,534,252z"/>
	<path class="st0" d="M23.1,252c0.3,0,0.6,0,0.9,0c0.1,1.1,0.4,2.3-0.9,3C23.1,254,23.1,253,23.1,252z"/>
	<path class="st0" d="M534,252c0.3,0,0.6,0,0.9,0c0,1,0,2,0,3C533.6,254.3,533.9,253.1,534,252z"/>
	<path class="st0" d="M23.1,271c1.3,0.7,1,1.9,0.9,3c-0.3,0.4-0.6,0.4-0.9,0C23.1,273,23.1,272,23.1,271z"/>
	<path class="st0" d="M534,274c-0.1-1.1-0.4-2.3,0.9-3c0,1,0,2,0,3C534.6,274.4,534.4,274.4,534,274z"/>
	<path class="st0" d="M23.1,274c0.3,0,0.6,0,0.9,0c0,1,0,2,0,3c-0.3,0.4-0.6,0.3-0.9-0.1C23.1,276,23.1,275,23.1,274z"/>
	<path class="st0" d="M534,274c0.3,0,0.6,0,0.9,0c0,1,0,2,0,3c-0.3,0.4-0.5,0.4-0.9,0.1C534,276.1,534,275,534,274z"/>
	<path class="st0" d="M264.9,518.1c1,0,2,0,3,0c0.4,0.2,0.5,0.4,0.4,0.6c-0.1,0.2-0.2,0.3-0.3,0.3c-1,0-2,0-3,0
		c-0.3-0.2-0.4-0.3-0.3-0.5C264.8,518.2,264.8,518.1,264.9,518.1z"/>
	<path class="st0" d="M268,518.9c0-0.3,0-0.6,0-0.9c1.1-0.1,2.3-0.4,3,0.9C270,518.9,269,518.9,268,518.9z"/>
	<path class="st0" d="M265,7.1c0,0.3,0,0.6-0.1,0.9c-0.8,0.1-1.7,0.3-1.9-0.9C263.7,7.1,264.3,7.1,265,7.1z"/>
	<path class="st0" d="M293.1,7.9c0-0.3-0.1-0.6-0.1-0.9c0.7,0,1.3,0,2,0C294.7,8.3,293.9,8.1,293.1,7.9z"/>
	<path class="st0" d="M264.9,518.1c0,0.3,0.1,0.6,0.1,0.9c-0.7,0-1.3,0-2,0C263.3,517.7,264.1,517.9,264.9,518.1z"/>
	<path class="st0" d="M23.1,277c0.3,0,0.6,0,0.9,0.1c0.1,0.8,0.3,1.7-0.9,1.9C23.1,278.3,23.1,277.7,23.1,277z"/>
	<path class="st0" d="M534.1,277.1c0.3,0,0.6,0,0.9-0.1c0,0.7,0,1.3,0,2C533.7,278.7,533.9,277.9,534.1,277.1z"/>
	<path class="st0" d="M534.9,249c-0.3,0-0.6,0-0.9-0.1c-0.1-0.8-0.3-1.7,0.9-1.9C534.9,247.7,534.9,248.3,534.9,249z"/>
	<path class="st0" d="M24,248.9c-0.3,0-0.6,0-0.9,0.1c0-0.7,0-1.3,0-2C24.3,247.3,24.1,248.1,24,248.9z"/>
	<path class="st0" d="M293,518.9c0-0.3,0-0.6,0.1-0.9c0.8-0.1,1.7-0.3,1.9,0.9C294.3,518.9,293.7,518.9,293,518.9z"/>
	<path class="st0" d="M438.9,259.4c-0.1,26.1,0.2,48.4-1,70.7c-1.1,20.1-5.2,39.2-17.3,55.9c-14,19.4-33.4,29.9-56.6,34
		c-13.7,2.4-27.5,2.7-41.3,2.8c-36.8,0.2-73.6,1-110.4-0.8c-20.2-1-39.6-5.2-56.3-17.4c-19.3-14.1-29.8-33.4-33.9-56.7
		c-1.9-11-2.4-22.2-2.5-33.3c-0.5-40.3-1.3-80.6,0.8-120.9c1.2-22.4,7.1-43.2,22.6-60.4c13.7-15.3,31-23.5,50.9-27.1
		c11.7-2.1,23.5-2.5,35.3-2.6c39.6-0.4,79.3-1.3,118.9,0.8c22.5,1.2,43.5,7.1,60.9,22.7c15.2,13.8,23.8,31,27,51
		C440.3,206.2,438.4,234.7,438.9,259.4z"/>
	<path class="st0" d="M410.1,263.5c-0.2,22.6,0.4,45.3-1.2,67.9c-1.2,17.7-5.6,34.1-19.5,46.5c-11.6,10.2-25.6,14.1-40.4,14.8
		c-46.6,2.1-93.2,2.2-139.8,0c-19.5-0.9-36.9-7.2-48.7-24.1c-7.6-10.8-10.6-23.3-11.1-36.2c-2-46.3-2.1-92.6,0-138.8
		c0.9-19.7,7.1-37.3,24.1-49.2c10.8-7.6,23.3-10.6,36.2-11.1c46.3-2,92.6-2.1,138.8,0c19.7,0.9,37.3,7.1,49.2,24.1
		c7.8,11.1,10.4,24,11.2,37.2C410.4,217.5,409.9,240.5,410.1,263.5z"/>
	<path class="st0" d="M361,262.8c0.1,45.5-36.7,82.2-82.1,82.2c-45.2,0-81.9-36.7-82-81.9c-0.1-45.5,36.7-82.2,82.1-82.2
		C324.3,181,361,217.6,361,262.8z"/>
	<path class="st0" d="M364.3,158.4c10.4,0,19.1,8.6,19.2,19c0.1,10.3-8.5,19.2-18.9,19.4c-10.4,0.2-19.6-8.8-19.5-19.3
		C345.2,167.2,354,158.5,364.3,158.4z"/>
	<path class="st0" d="M279.2,209.8c29.6,0.1,53.2,23.9,53,53.5c-0.2,29.6-24.1,53.1-53.6,52.9c-29.4-0.3-52.8-23.9-52.8-53.3
		C225.8,233.3,249.6,209.7,279.2,209.8z"/>
</g>
</svg>
